<svg width="24" height="24" viewBox="0 0 24 24" fill="none" xmlns="http://www.w3.org/2000/svg">
<path fill-rule="evenodd" clip-rule="evenodd" d="M12 21.474C14.5127 21.474 16.9224 20.4759 18.6991 18.6991C20.4759 16.9224 21.474 14.5127 21.474 12C21.474 9.48734 20.4759 7.07759 18.6991 5.30087C16.9224 3.52415 14.5127 2.526 12 2.526C9.48734 2.526 7.07759 3.52415 5.30087 5.30087C3.52415 7.07759 2.526 9.48734 2.526 12C2.526 14.5127 3.52415 16.9224 5.30087 18.6991C7.07759 20.4759 9.48734 21.474 12 21.474ZM15.796 4.896C15.9267 5.08467 16.05 5.28 16.166 5.482C16.68 6.375 17.086 7.432 17.355 8.598C17.7243 8.69467 18.0727 8.80067 18.4 8.916C18.85 9.076 19.27 9.256 19.643 9.458C18.9898 7.50216 17.6135 5.87007 15.796 4.896ZM19.809 13.976C19.395 14.216 18.919 14.427 18.399 14.61C18.1037 14.7147 17.791 14.8113 17.461 14.9C17.198 16.265 16.753 17.499 16.166 18.518C16.0512 18.7186 15.9277 18.9141 15.796 19.104C16.7845 18.5748 17.6519 17.8454 18.3428 16.9623C19.0338 16.0792 19.5331 15.0628 19.809 13.976ZM8.204 19.103C8.07226 18.9131 7.94881 18.7176 7.834 18.517C7.247 17.497 6.802 16.264 6.539 14.899C6.209 14.8103 5.896 14.7137 5.6 14.609C5.11216 14.441 4.64084 14.2285 4.192 13.974C4.46777 15.0607 4.96695 16.078 5.65771 16.9611C6.34847 17.8442 7.21567 18.5737 8.204 19.103ZM4.357 9.458C4.75711 9.24633 5.17263 9.06515 5.6 8.916C5.928 8.80067 6.27667 8.69467 6.646 8.598C6.915 7.432 7.32 6.375 7.834 5.482C7.95067 5.28 8.074 5.08467 8.204 4.896C6.38653 5.87007 5.01024 7.50216 4.357 9.458ZM14.935 6.192C15.28 6.791 15.575 7.492 15.802 8.272C14.844 8.113 13.802 8.014 12.711 7.983V4.11C13.503 4.369 14.283 5.06 14.935 6.192ZM16.137 9.776C15.0071 9.55902 13.8612 9.43527 12.711 9.406V14.121C13.8847 14.0906 15.0538 13.9618 16.206 13.736C16.2753 13.1773 16.3103 12.5987 16.311 12C16.311 11.226 16.25 10.48 16.137 9.776ZM11.29 4.11V7.983C10.199 8.013 9.157 8.113 8.199 8.271C8.426 7.492 8.72 6.791 9.065 6.191C9.717 5.06 10.498 4.368 11.29 4.11ZM11.29 9.406C10.1394 9.43555 8.99324 9.55963 7.863 9.777C7.65643 11.0874 7.63321 12.4202 7.794 13.737C8.828 13.947 10.014 14.085 11.29 14.122V9.406ZM6.074 10.257C6.172 10.2217 6.27267 10.1877 6.376 10.155C6.25024 11.2178 6.23349 12.2908 6.326 13.357C6.24 13.329 6.156 13.3003 6.074 13.271C5.329 13.008 4.777 12.711 4.424 12.417C4.068 12.12 3.994 11.896 3.994 11.764C3.994 11.633 4.068 11.409 4.424 11.111C4.777 10.817 5.329 10.52 6.074 10.257ZM9.065 17.809C8.648 17.086 8.305 16.213 8.066 15.234C9.06 15.404 10.148 15.512 11.289 15.544V19.891C10.498 19.632 9.717 18.941 9.065 17.809ZM12.711 19.891V15.544C13.7913 15.5165 14.8683 15.4129 15.934 15.234C15.694 16.213 15.352 17.086 14.934 17.809C14.283 18.941 13.503 19.632 12.711 19.891ZM17.73 12C17.73 12.46 17.711 12.912 17.673 13.356C17.759 13.328 17.843 13.2993 17.925 13.27C18.67 13.007 19.222 12.71 19.575 12.416C19.931 12.119 20.005 11.895 20.005 11.763C20.005 11.632 19.931 11.408 19.575 11.11C19.222 10.816 18.67 10.519 17.925 10.256C17.8249 10.2204 17.7242 10.1864 17.623 10.154C17.6943 10.754 17.7303 11.3693 17.731 12" fill="white"/>
</svg>
